<?xml version="1.0" encoding="UTF-8"?>
<svg id="Layer_1" xmlns="http://www.w3.org/2000/svg" width="241.972" height="475" viewBox="0 0 241.972 475">
  <path d="M44.972,394s30,27,39,35,50,46,101,46c0,0,8-1,9-2s3,2,4,1-3-6-2-8-3-3-2-4-1-8,1-14,5-20,22-35,20-33,18-45-23-30-31-37-24-13-38-57c0,0,6-3,6-6s-2-4-2-4c0,0,1-5-1-6l-4-2s0-4-1-6-4-3-4-3c0,0,2-2,1-7s-4-5-4-5c0,0,2-13,5-18s9-10,12-11,23,0,33-5,10-7,10-14-3-9,3-16c0,0,2,0-1-7,0,0,0-2,3-3s3-4,2-8,2-9,7-10,11-5,11-9-17-19-18-31c0,0,1-3,4-3s1-2-5-2c0,0-2-1-2-6s1-10,1-12-1-5-1-5c0,0,1.01,1,3.005,0s4.995-4,4.995-5,1-6,3-8,0-4-1-6,1-4,1-6,0-4-2-5-2-1-3-2-6-7-8-8-6-6-9-9-15-12-20-14-17-7-26-8-13,0-17-1-7-3-12-3-31,3-42,10-42,25-50,36-8,13-8,13c0,0-5,1-6-1s-3-4-4-2,0,4.331,0,8.165,1,7.835,1,7.835c0,0-5,2-7,0s-4-2-6-1-5,4-8,10,1,10-3,13-1,13,1,16,4,3,4,9,3,12,8,15,5,4,7,6,5,2,10,1,8-6,11-1,8,11,13,14,6,2,8,7,4,5,9,9,6,8,7,14-1,11-2,15-1,5-1,7-2,4-3,5-5,8-6,11-1,6-4,7-4,4-5,7,0,5-2,6-3,1-3,4,1,6,1,6c0,0-17,27-21,32s-16,21-16,21c0,0-2,0-4,1s1,4,0,5-2,0-4,1,2,4,2,5-2,5-3,16-2,25,3,34,28,19,33,27Z" fill="#eadedd"/>
</svg>