<?xml version="1.0" encoding="UTF-8"?>
<svg id="Layer_1" xmlns="http://www.w3.org/2000/svg" width="467.058" height="237.132" viewBox="0 0 467.058 237.132">
  <path d="M367.058,237.128c1.785.902,100-152,100-152,0,0-14.195-22.176-27.098-26.088,0,0-2.902-11.912,6.098-19.912s-3,4-17-2-22-16-28-17c0,0-1-6,1-10s-15.249,3-32.624,0-36.376-14-64.376,12c0,0-23-17-65-21s-52,4-68,3S60.058,84.128,48.058,85.128s-16,3-16,3l5,7s-10.765,19.872-21.882,23.436-26.118,11.564-3.118,11.564,85,0,107,7,35,8,45,19,30,12,46,12,60,20,157,69Z" fill="#eadedd"/>
</svg>